<?xml version="1.0" standalone="no"?>
<!DOCTYPE svg PUBLIC "-//W3C//DTD SVG 1.1//EN" "http://www.w3.org/Graphics/SVG/1.1/DTD/svg11.dtd" >
<svg xmlns="http://www.w3.org/2000/svg">
<metadata>
Created by FontForge 20120731 at Sat Feb 11 21:40:04 2017
 By admin
</metadata>
<defs>
<font id="iconfont" horiz-adv-x="1024" >
  <font-face 
    font-family="iconfont"
    font-weight="500"
    font-stretch="normal"
    units-per-em="1024"
    panose-1="2 0 6 3 0 0 0 0 0 0"
    ascent="896"
    descent="-128"
    x-height="792"
    bbox="0 -212 1365 896"
    underline-thickness="50"
    underline-position="-100"
    unicode-range="U+0078-E716"
  />
<missing-glyph horiz-adv-x="374" 
d="M34 0v682h272v-682h-272zM68 34h204v614h-204v-614z" />
    <glyph glyph-name=".notdef" horiz-adv-x="374" 
d="M34 0v682h272v-682h-272zM68 34h204v614h-204v-614z" />
    <glyph glyph-name=".null" horiz-adv-x="0" 
 />
    <glyph glyph-name="nonmarkingreturn" horiz-adv-x="341" 
 />
    <glyph glyph-name="x" unicode="x" horiz-adv-x="1001" 
d="M281 543q-27 -1 -53 -1h-83q-18 0 -36.5 -6t-32.5 -18.5t-23 -32t-9 -45.5v-76h912v41q0 16 -0.5 30t-0.5 18q0 13 -5 29t-17 29.5t-31.5 22.5t-49.5 9h-133v-97h-438v97zM955 310v-52q0 -23 0.5 -52t0.5 -58t-10.5 -47.5t-26 -30t-33 -16t-31.5 -4.5q-14 -1 -29.5 -0.5
t-29.5 0.5h-32l-45 128h-439l-44 -128h-29h-34q-20 0 -45 1q-25 0 -41 9.5t-25.5 23t-13.5 29.5t-4 30v167h911zM163 247q-12 0 -21 -8.5t-9 -21.5t9 -21.5t21 -8.5q13 0 22 8.5t9 21.5t-9 21.5t-22 8.5zM316 123q-8 -26 -14 -48q-5 -19 -10.5 -37t-7.5 -25t-3 -15t1 -14.5
t9.5 -10.5t21.5 -4h37h67h81h80h64h36q23 0 34 12t2 38q-5 13 -9.5 30.5t-9.5 34.5q-5 19 -11 39h-368zM336 498v228q0 11 2.5 23t10 21.5t20.5 15.5t34 6h188q31 0 51.5 -14.5t20.5 -52.5v-227h-327z" />
    <glyph glyph-name="uniE600" unicode="&#xe600;" horiz-adv-x="1066" 
d="M332 748v64h299v84h90v-84h322v-64h-322v-102h254v-679h90v-64h-774v64h90v679h250v102h-299zM136 -128v679q-40 -27 -73 -46.5t-63 -33.5v59q184 125 229 356h90q-21 -75 -44 -133.5t-50 -101.5v-779h-89zM470 73v-106h416v106h-416zM470 584v-113h416v113h-416z
M470 413v-112h416v112h-416zM470 243v-111h416v111h-416z" />
    <glyph glyph-name="uniE601" unicode="&#xe601;" 
d="M863 612q5 0 9 -3.5t4 -8.5v-10q0 -5 -4 -8.5t-9 -3.5h-556q-5 0 -9 3.5t-4 8.5v10q0 5 4 8.5t9 3.5h556zM863 318q5 0 9 -3.5t4 -8.5v-10q0 -5 -4 -8.5t-9 -3.5h-556q-5 0 -9 3.5t-4 8.5v10q0 5 4 8.5t9 3.5h556zM863 25q5 0 9 -3.5t4 -8.5v-11q0 -5 -4 -8.5t-9 -3.5
h-556q-5 0 -9 3.5t-4 8.5v11q0 5 4 8.5t9 3.5h556zM188 596zM149 596q0 16 11 27.5t27.5 11.5t28 -11.5t11.5 -27.5t-11.5 -27.5t-28 -11.5t-27.5 11.5t-11 27.5zM188 301zM149 301q0 16 11 27.5t27.5 11.5t28 -11.5t11.5 -27.5t-11.5 -27.5t-28 -11.5t-27.5 11.5t-11 27.5z
M188 7zM149 7.5q0 16.5 11 27.5t27.5 11t28 -11t11.5 -27.5t-11.5 -28t-28 -11.5t-27.5 11.5t-11 28z" />
    <glyph glyph-name="uniE602" unicode="&#xe602;" 
d="M735 810h-446q-40 0 -68 -28t-28 -68v-828q0 -40 28 -68t68 -28h446q40 0 68 28t28 68v828q0 40 -28 68t-68 28zM384 762h256v-32h-256v32zM512 -146q-26 0 -45 18.5t-19 45t19 45t45 18.5t45 -18.5t19 -45t-19 -45t-45 -18.5zM767 45h-510v638h510v-638zM767 45z" />
    <glyph glyph-name="uniE603" unicode="&#xe603;" 
d="M456 779q37 -7 63 -33l443 -443q35 -34 35 -83t-35 -84l-306 -306q-35 -35 -84 -35t-83 35l-443 443q-29 29 -34 69q-13 15 -9 54l29 265q5 49 43.5 84.5t87.5 37.5l241 8q37 2 52 -12zM233 688q-21 21 -51.5 20t-53 -23t-23 -53t20.5 -52t51.5 -20t53 23.5t23 53
t-20.5 51.5z" />
    <glyph glyph-name="uniE604" unicode="&#xe604;" horiz-adv-x="1028" 
d="M888 -46q1 4 2 12q3 16 6 33q12 55 31 100q4 9 8 17q11 24 33 54q1 2 15 19t25 32t12 19q13 39 3.5 75.5t-36.5 59t-67.5 29.5t-88.5 -13q-6 -2 -10 -7l-182 -230l19 9h-291q-10 0 -17 -7t-7 -17t7 -17.5t17 -7.5h291q12 0 19 10l182 230l-10 -8q64 26 103.5 -6t21.5 -85
l-6 -7q-4 -4 -6 -7q-22 -27 -33 -42q-25 -34 -39 -62l-8 -20q-20 -49 -33 -108q-4 -18 -7 -35q-1 -9 -2 -14q-1 -10 5 -18t16 -9.5t18 5t9 16.5zM188 -40q-1 5 -2 14q-3 17 -7 35q-13 59 -33 108q-5 10 -9 20q-13 28 -38 62q-12 15 -34 42q-2 3 -6 7l-6 7q-17 53 22.5 85
t103.5 6l-10 8l106 -135q6 -8 16 -9t18 5t9 16t-5 18l-106 135q-4 5 -10 7q-37 15 -72 14.5t-60 -14.5t-43 -37t-21 -52.5t6 -61.5q2 -4 13 -19t24.5 -32t15.5 -19q22 -30 33 -54q4 -8 8 -17q18 -45 30 -100q4 -17 7 -33q1 -8 2 -12q1 -10 9 -16.5t18 -5t16 9.5t5 18z
M197 -152v97l-24 -25h691l-24 25v-97q0 -10 7 -17.5t17 -7.5t17 7.5t7 17.5v97q0 10 -7 17t-17 7h-691q-10 0 -17 -7t-7 -17v-97q0 -10 7 -17.5t17 -7.5t17 7.5t7 17.5zM173 393v170q0 30 21.5 51.5t51.5 21.5h509q30 0 51.5 -21.5t21.5 -51.5v-170h48v170q0 50 -35.5 85.5
t-85.5 35.5h-509q-50 0 -85.5 -35.5t-35.5 -85.5v-170h48z" />
    <glyph glyph-name="uniE605" unicode="&#xe605;" 
d="M899 -14q10 10 10 25v724q0 14 -10 25q-10 9 -25 9h-724q-14 0 -24 -9q-10 -10 -10 -25v-724q0 -15 10 -25t24 -10h724q14 0 25 10zM150 821h724q36 0 61 -25q25 -26 25 -61v-724q0 -36 -25 -61q-25 -26 -61 -26h-724q-35 0 -61 26q-25 25 -25 61v724q0 35 25 61
q26 25 61 25zM724 497q5 2 9 2q11 0 19 -7q8 -8 8 -19q0 -3 -3 -10q0 -1 -1.5 -2.5t-1.5 -2.5v-1l-3 -3l-226 -206l-1 1l-1 -1h-1q-5 -2 -10 -2t-9 2h-1l-1 1l-1 -1l-5 5l-221 201l-3 3v1q-3 3 -3 5q-3 5 -3 10v0q0 11 8 19q7 7 18 7q5 0 10 -2h1h1l6 -4l203 -186l210 191
v-1h2v0z" />
    <glyph glyph-name="uniE606" unicode="&#xe606;" 
d="M852 -50h-677q-46 0 -79 31.5t-33 75.5v484q0 44 33 75.5t79 31.5h677q47 0 80 -31.5t33 -75.5v-484q0 -44 -33 -75.5t-80 -31.5zM175 8h676q23 0 39.5 13.5t16.5 35.5v358h-786v-349q0 -23 15.5 -40.5t38.5 -17.5zM852 590h-673q-23 0 -40.5 -18t-17.5 -40v-59h786v59
q0 22 -16 40t-39 18zM207 270h274q12 0 20 -8.5t8 -20.5t-8 -20.5t-20 -8.5h-274q-12 0 -20 8.5t-8 20.5t8 20.5t20 8.5zM208 153h233q12 0 20.5 -8.5t8.5 -20.5t-8.5 -20.5t-20.5 -8.5h-233q-12 0 -20.5 8.5t-8.5 20.5t8.5 20.5t20.5 8.5zM591 270h55q12 0 20 -8.5t8 -20.5
t-8 -20.5t-20 -8.5h-55q-11 0 -19 8.5t-8 20.5t8 20.5t19 8.5zM591 270z" />
    <glyph glyph-name="uniE607" unicode="&#xe607;" horiz-adv-x="1449" 
d="M1098 871h-702q0 -1 -10 -2.5t-24.5 -6t-28.5 -13.5t-24 -28.5t-10 -47.5v-507q0 -27 10 -47t24 -29.5t28.5 -14.5t24.5 -6h10h234l20 -20q12 -12 38 -37.5t43 -42.5t16 -17l29 30l58 58l30 29h234q3 0 9 1q19 1 28 2.5t23 9.5t20.5 21.5t12 39t5.5 62.5v468
q0 28 -10 47.5t-24.5 28.5t-29 13.5t-24.5 6t-10 2.5zM1157 266q0 -16 -6 -28t-14.5 -17.5t-17.5 -8t-15 -3.5l-6 -1h-253l-98 -98l-97 98h-254q-26 0 -41 14.5t-17.5 29t0.5 14.5v507q0 17 6 29t14.5 17.5t17 8t14.5 3.5l6 1h702h2q57 -4 57 -59v-507zM981 676h-468
q-8 0 -13.5 -6t-5.5 -14t5.5 -13.5t13.5 -5.5h468q8 0 14 5.5t6 13.5t-6 14t-14 6zM981 539h-468q-8 0 -13.5 -5.5t-5.5 -13.5t5.5 -14t13.5 -6h468q8 0 14 6t6 14t-6 13.5t-14 5.5zM981 403h-468q-8 0 -13.5 -6t-5.5 -14t5.5 -13.5t13.5 -5.5h468q8 0 14 5.5t6 13.5t-6 14
t-14 6z" />
    <glyph glyph-name="uniE608" unicode="&#xe608;" 
d="M472 624l-399 -400q-17 -16 -17 -39.5t16.5 -40t40 -16.5t40.5 16l359 360l359 -360q17 -16 40.5 -16t40 16.5t16.5 40t-17 39.5l-399 400q-17 16 -40 16t-40 -16z" />
    <glyph glyph-name="uniE609" unicode="&#xe609;" 
d="M945 -33l-253 253q89 100 89 232q0 145 -102.5 248t-247.5 103t-248 -102.5t-103 -248t103 -248t248 -102.5q132 0 232 89l253 -253zM212.5 234.5q-90.5 90.5 -90.5 218t90.5 218t218.5 90.5t218.5 -90.5t90.5 -218t-90.5 -218t-218.5 -90.5t-218.5 90.5z" />
    <glyph glyph-name="uniE60A" unicode="&#xe60a;" 
d="M704 564h-6v78h-51v-78h-280v78h-51v-78h-6q-48 0 -82.5 -34t-34.5 -83v-334q0 -48 34.5 -82t82.5 -34h18v-8q0 -14 10 -24t24.5 -10t24 10t9.5 24v8h221v-8q0 -14 10 -24t24 -10t24 10t10 24v8h19q48 0 82 34t34 82v334q0 49 -34 83t-82 34zM767 113q0 -26 -18.5 -44.5
t-44.5 -18.5h-394q-26 0 -44.5 18.5t-18.5 44.5v334q0 26 18.5 45t44.5 19h394q26 0 44.5 -19t18.5 -45v-334zM704 564h-6v78h-51v-78h-280v78h-51v-78h-6q-48 0 -82.5 -34t-34.5 -83v-334q0 -48 34.5 -82t82.5 -34h18v-8q0 -14 10 -24t24.5 -10t24 10t9.5 24v8h221v-8
q0 -14 10 -24t24 -10t24 10t10 24v8h19q48 0 82 34t34 82v334q0 49 -34 83t-82 34zM767 113q0 -26 -18.5 -44.5t-44.5 -18.5h-394q-26 0 -44.5 18.5t-18.5 44.5v334q0 26 18.5 45t44.5 19h394q26 0 44.5 -19t18.5 -45v-334zM370.5 434q-10.5 0 -18 -7.5t-7.5 -18.5v-256
q0 -10 7.5 -17.5t18 -7.5t18 7.5t7.5 17.5v256q0 11 -7.5 18.5t-18 7.5zM370.5 434q-10.5 0 -18 -7.5t-7.5 -18.5v-256q0 -10 7.5 -17.5t18 -7.5t18 7.5t7.5 17.5v256q0 11 -7.5 18.5t-18 7.5zM642.5 434q-10.5 0 -18 -7.5t-7.5 -18.5v-256q0 -10 7.5 -17.5t18 -7.5t18 7.5
t7.5 17.5v256q0 11 -7.5 18.5t-18 7.5zM642.5 434q-10.5 0 -18 -7.5t-7.5 -18.5v-256q0 -10 7.5 -17.5t18 -7.5t18 7.5t7.5 17.5v256q0 11 -7.5 18.5t-18 7.5zM367 703q0 24 17.5 41.5t41.5 17.5h162q24 0 41.5 -17.5t17.5 -41.5v-27h51v27q0 46 -32.5 78t-77.5 32h-162
q-46 0 -78 -32t-32 -78v-27h51v27zM367 703q0 24 17.5 41.5t41.5 17.5h162q24 0 41.5 -17.5t17.5 -41.5v-27h51v27q0 46 -32.5 78t-77.5 32h-162q-46 0 -78 -32t-32 -78v-27h51v27z" />
    <glyph glyph-name="uniE60B" unicode="&#xe60b;" 
d="M770 -34h-1l-256 142l-257 -142v1l49 299l-207 212l286 44l129 274v-1l129 -273l286 -44h-1l-206 -212zM100 478l206 -211v-1l-49 -298l256 141l256 -141l-49 299l206 211l-285 43l-128 273l-128 -273zM236 -63l5 32l48 292l-223 228l308 47l139 296l14 -30l125 -266
l308 -47l-22 -22l-201 -206l53 -324l-28 16l-249 137zM513 126l7 -4l228 -126l-45 276l6 5l185 190l-263 40l-4 8l-114 243l-118 -251l-8 -1l-255 -39l190 -195l-1 -8l-44 -268z" />
    <glyph glyph-name="uniE60C" unicode="&#xe60c;" 
d="M228 505v84q0 8 7 8h566q8 0 8 -8v-84q0 -12 8 -20.5t20 -8.5t20.5 8.5t8.5 20.5v84q0 27 -19 46t-46 19h-566q-26 0 -45 -19t-19 -46v-84q0 -12 8 -20.5t20 -8.5t20.5 8.5t8.5 20.5zM809 529q0 -121 -85 -206t-205.5 -85t-205.5 85t-85 206q0 12 -8.5 20t-20.5 8t-20 -8
t-8 -20q0 -95 46.5 -175t126.5 -126.5t174.5 -46.5t174.5 46.5t126.5 126.5t46.5 175q0 12 -8.5 20t-20.5 8t-20 -8t-8 -20zM308 808v-156q0 -12 8.5 -20.5t20.5 -8.5t20 8.5t8 20.5v156q0 12 -8 20.5t-20 8.5t-20.5 -8.5t-8.5 -20.5zM670 811v-157q0 -12 8 -20t20 -8
t20.5 8t8.5 20v157q0 11 -8.5 19.5t-20.5 8.5t-20 -8.5t-8 -19.5zM489 210v-274q0 -12 8.5 -20.5t20 -8.5t20 8.5t8.5 20.5v274q0 12 -8.5 20t-20 8t-20 -8t-8.5 -20z" />
    <glyph glyph-name="uniE60D" unicode="&#xe60d;" 
d="M914 823h-804q-30 0 -51.5 -21.5t-21.5 -51.5v-549q0 -30 21.5 -51.5t51.5 -21.5h245l157 -157l157 157h245q30 0 51.5 21.5t21.5 51.5v549q0 30 -21.5 51.5t-51.5 21.5zM914 201h-245h-29l-22 -22l-106 -106l-106 106l-22 22h-29h-245v549h804v-549zM292.5 421
q13.5 0 25 11t11.5 25v37q0 13 -11.5 24.5t-25 11.5t-25 -11.5t-11.5 -24.5v-37q0 -14 11.5 -25t25 -11zM512 421q14 0 25.5 11t11.5 25v37q0 13 -11.5 24.5t-25.5 11.5t-25.5 -11.5t-11.5 -24.5v-37q0 -14 11.5 -25t25.5 -11zM731.5 421q13.5 0 25 11t11.5 25v37
q0 13 -11.5 24.5t-25 11.5t-25 -11.5t-11.5 -24.5v-37q0 -14 11.5 -25t25 -11z" />
    <glyph glyph-name="uniE60E" unicode="&#xe60e;" 
d="M725 394q-16 3 -20.5 9.5t-1.5 11.5l4 5q1 3 3 7t6 16t4.5 23.5t-4.5 26t-16 26.5q-15 14 -38.5 19t-46.5 1t-44 -9.5t-34 -11.5l-13 -6q-11 -3 -17.5 -4t-10.5 0.5t-6 3t-1.5 7.5t1 9.5t2.5 12.5t3 15q0 16 -2 29t-11 27.5t-23.5 22.5t-41.5 7.5t-64 -13.5
q-35 -12 -72.5 -36.5t-65.5 -51t-50.5 -51.5t-34.5 -41l-12 -16q-22 -28 -36.5 -57.5t-20 -49.5t-8 -38.5t-2 -24.5t0.5 -9q5 -50 29.5 -89.5t58.5 -64t80 -41.5t87.5 -25t89.5 -12q77 -6 159.5 12t153.5 63t100 107q18 38 18.5 70t-11 52t-30 35.5t-34 23t-28.5 9.5z
M408 71q-112 -6 -190.5 43t-78.5 124q0 74 78 128t191 59q114 5 191.5 -38t77.5 -116q0 -76 -79 -135.5t-190 -64.5zM378 359q-30 -4 -54 -14.5t-37.5 -24.5t-23 -30.5t-13 -32t-4.5 -28.5t-1 -20.5t1 -7.5v-5q0 -3 2 -12t5.5 -17t12 -17.5t20.5 -15.5q68 -33 127.5 -20
t95.5 60q14 18 19 43.5t-2 52t-23.5 48.5t-49 34t-75.5 7zM340 161.5q-21 -2.5 -35.5 8t-14.5 28.5t13.5 33.5t34.5 17.5q23 2 38 -9.5t15 -29.5t-15 -32t-36 -16.5zM428.5 237.5q-7.5 -5.5 -15 -5t-11.5 7.5q-4 6 -2 14.5t9 13.5q8 6 15.5 5t11.5 -7.5t2 -14.5t-9.5 -13.5z
M798 455q9 0 15.5 6t8.5 15v2q4 34 -1.5 59.5t-17 40t-26.5 24t-31 12t-29 3t-21 -0.5l-9 -1q-10 0 -17 -7.5t-7 -17.5t7 -17t17 -7q33 6 51.5 0t26.5 -20t9.5 -29t0.5 -26l-2 -11q0 -10 7 -17.5t18 -7.5zM780 743q-52 12 -123 -1l-1 -1l-2 -1h-1q-11 -4 -18.5 -13.5
t-7.5 -21.5q0 -15 10.5 -25.5t25.5 -10.5q19 3 32 8q6 0 18.5 1.5t34 -4t42.5 -13.5t44 -27t38 -45q27 -62 11 -119q-7 -17 -7 -34q0 -15 10 -23.5t25 -8.5t23.5 5.5t11.5 24.5q19 58 14.5 105t-20.5 81.5t-44 60t-57 40.5t-59 22z" />
    <glyph glyph-name="uniE60F" unicode="&#xe60f;" 
d="M156 192h292v-166q-4 -154 94 -154q36 0 61 17t31 35l6 16q4 50 19 94t38 75t50 57t53 42t48 27t35 16l13 5v512l-94 4q-66 0 -105 13t-61 31t-51 36t-98 31t-179 13q-62 0 -112 -16t-82 -40t-54 -64t-34 -74t-18 -86t-7 -85t-1 -83q0 -126 47 -191t109 -65v0zM308 832
q94 0 155 -11t81 -21t46 -28q44 -32 87 -48t123 -16l32 -2v-408q-38 -16 -73 -41t-77 -66t-71 -103t-35 -136q-8 -16 -34 -16q-12 0 -16 4q-16 16 -14 86v230h-356q-36 0 -64 51t-28 141q0 202 49 293t195 91zM992 832q-14 0 -23 -9t-9 -23v-574q0 -12 9 -22t23 -10t23 10
t9 22v574q0 14 -9 23t-23 9z" />
    <glyph glyph-name="uniE610" unicode="&#xe610;" horiz-adv-x="1216" 
d="M283 571q-25 0 -43 17.5t-18 41.5t18 41t43 17t43 -17t18 -41t-18 -41.5t-43 -17.5zM585.5 688q25.5 0 43 -17t17.5 -41t-17.5 -41.5t-43 -17.5t-43.5 17.5t-18 41.5t18 41t43.5 17zM845 561h18q-24 130 -145.5 217.5t-283.5 87.5q-118 0 -218 -48t-158 -131t-58 -181
q0 -86 45.5 -161t124.5 -125l4 -2l-42 -130l157 79q5 -2 8 -2q66 -19 137 -19q12 0 29 1q-13 43 -13 86q0 89 53 165t144 119.5t198 43.5zM669 335.5q0 20.5 15.5 35t36.5 14.5t36 -14.5t15 -35t-15 -35t-36 -14.5t-36.5 14.5t-15.5 35zM925 335.5q0 20.5 15 35t36 14.5
t36.5 -14.5t15.5 -35t-15.5 -35t-36.5 -14.5t-36 14.5t-15 35zM482 231q0 -83 49 -153t133.5 -110.5t184.5 -40.5q59 0 116 15l6 2l132 -67l-35 110q2 2 3 2q67 43 105.5 106t38.5 136q0 82 -49 152t-133.5 111t-184 41t-184 -41t-133.5 -111t-49 -152z" />
    <glyph glyph-name="uniE611" unicode="&#xe611;" 
d="M708 563l-196 -196l-196 196l-60 -60l256 -256l256 256z" />
    <glyph glyph-name="uniE612" unicode="&#xe612;" 
d="M871 75h-116q-6 0 -11 -4.5t-5 -11t5 -11t11 -4.5h116q7 0 11.5 4.5t4.5 11t-4.5 11t-11.5 4.5zM694 75h-253l390 421v5q0 41 -20 61q-21 22 -58 19q-23 7 -81 70q-28 29 -41 42t-32 23.5t-33 6.5q-9 -3 -20 -25q-6 -12 -12 -23q-27 -39 -62 -76.5t-61 -52.5q-1 0 -2.5 1
t-1.5 2q-58 49 -85 29q-12 -9 -14.5 -23.5t-1.5 -41.5q2 -37 -1 -60v-2q-8 -60 -12.5 -90.5t-14.5 -69.5t-22 -58q-14 -20 -45 -33q-27 -11 -42 -27q-33 -35 -33 -90v-7l6 -4l4 -4q23 -23 43 -23h503q6 0 11 4.5t5 10.5q0 15 -14 15zM791 541q11 -12 11 -32l-229 -247
q5 45 5 74q0 21 55 85.5t121 128.5q24 3 37 -9zM399 75h-208q-8 0 -21 13l-1 1q3 40 24 63q10 10 30 19q14 6 20 9t18 12.5t21 22.5q20 30 31.5 86t22.5 145v3q3 27 1 65q-2 36 3 39q6 6 47 -28q10 -8 14 -11l8 -4l7 3q32 15 73 58.5t70 84.5q4 7 9 18l6 10q1 1 2 3.5t2 3.5
q14 -3 71 -63q57 -59 81 -73q-175 -171 -175 -221q0 -29 -6 -100z" />
    <glyph glyph-name="uniE613" unicode="&#xe613;" 
d="M572 752q16 0 28 -11t16 -27l3 -14q5 -29 5 -58q0 -71 -14 -113l-24 -73l77 -1q187 0 200 -1q23 -1 34 -19q8 -14 7 -31q-3 -22 -36.5 -172t-41.5 -185q-6 -10 -15 -16q-11 -7 -16 -7h-454v412q83 26 137 96t56 157v3v2v2v4q0 21 10 36.5t28 15.5zM196 423v-399h-76v399
h76zM572 808q-41 0 -67.5 -31t-26.5 -77v-3v-3v-3q-2 -81 -58 -141t-135 -69v-513h510q22 0 47 16q24 16 36 43q2 3 41.5 180.5t40.5 191.5q3 35 -15 65q-26 44 -80 46q-6 1 -201 1q16 51 16 131q0 42 -8 84h-1q-8 35 -35.5 58.5t-63.5 23.5zM212 479h-108q-17 0 -28.5 -12
t-11.5 -29v-430q0 -16 11.5 -28t28.5 -12h108q16 0 28 12t12 28v430q0 17 -12 29t-28 12zM296 -32h-1v0h1v0z" />
    <glyph glyph-name="uniE614" unicode="&#xe614;" horiz-adv-x="1365" 
d="M1212 137q-13 63 -67.5 107.5t-118.5 44.5t-118.5 -44.5t-66.5 -107.5h-311q-13 63 -67.5 107.5t-118.5 44.5t-118.5 -44.5t-67.5 -107.5h-82v152v6v2q0 5 1 11v2q6 66 56 124.5t115 74.5q5 1 10 3q22 5 45 5h759q23 0 45 -5q5 -2 10 -3q65 -16 115 -74.5t57 -124.5v-2
v-3v-8v-2v-6v-152h-77zM1140 91q-3 -7 -5 -14q-7 -37 -39.5 -64t-70.5 -27q-46 0 -79 33.5t-33 80.5t33 80t80 33t80.5 -33t33.5 -81v-8zM457 91q-3 -7 -4 -14q-8 -37 -40 -64t-70 -27q-47 0 -80 33.5t-33 80.5t33.5 80t80.5 33t80 -33t33 -81v-8zM642 819v-226h-334
q18 89 112 152.5t222 73.5zM1058 593h-340v226q130 -9 225.5 -72.5t114.5 -153.5zM1365 296v3v5v3q0 7 -1 14q0 1 -1 3q-9 86 -76 162t-151 98q-10 86 -72.5 157.5t-163 113t-217.5 41.5t-218 -41.5t-163.5 -113t-71.5 -157.5q-85 -22 -151.5 -98t-76.5 -162v-2v-1
q-1 -7 -1 -14l-1 -3v-5v-3v-7v-152q0 -31 22 -53t54 -22h80q12 -63 66.5 -107.5t118.5 -44.5h3q64 0 118.5 44.5t67.5 107.5h308q13 -63 67.5 -107.5t118.5 -44.5h2q64 0 118.5 44.5t67.5 107.5h77q32 0 54 22t22 54v151v7z" />
    <glyph glyph-name="uniE615" unicode="&#xe615;" 
d="M858 621h-98q-35 89 -101.5 144t-146.5 55t-147.5 -55.5t-102.5 -143.5h-96q-19 0 -32 -13t-13 -32v-589q0 -19 13 -32t32 -13h691q20 0 32.5 10t12.5 29v588q0 21 -13 36.5t-31 15.5zM358 691q74 84 154 84q87 0 154 -77q13 -18 43 -77h-395q24 50 44 70zM269 447
q-21 0 -36 15t-15 36t15 36t36 15t36 -15t15 -36t-15 -36t-36 -15zM755 447q-21 0 -36.5 15t-15.5 36t15.5 36t36.5 15t36 -15t15 -36t-15 -36t-36 -15z" />
    <glyph glyph-name="uniE61B" unicode="&#xe61b;" 
d="M99 510q0 10 7 17t17 7h27q10 0 17 -7t7 -17v-252q0 -10 -7.5 -17t-16.5 -7h-27q-10 0 -17 7t-7 17v252zM287 660q0 10 7 17.5t17 7.5h26q10 0 17.5 -7.5t7.5 -17.5v-552q0 -10 -7.5 -17.5t-17.5 -7.5h-26q-10 0 -17 7.5t-7 17.5v552zM850 510q0 10 7.5 17t16.5 7h27
q10 0 17 -7t7 -17v-252q0 -10 -7 -17t-17 -7h-27q-10 0 -17 7t-7 17v252zM662 660q0 10 7.5 17.5t17.5 7.5h26q10 0 17 -7.5t7 -17.5v-552q0 -10 -7 -17.5t-17 -7.5h-26q-10 0 -17.5 7.5t-7.5 17.5v552zM474 773q0 10 7.5 17t17.5 7h26q10 0 17.5 -7t7.5 -17v-778
q0 -10 -7.5 -17t-17.5 -7h-26q-10 0 -17.5 7t-7.5 17v778z" />
    <glyph glyph-name="uniE62E" unicode="&#xe62e;" 
d="M512 748q-185 0 -316.5 -131.5t-131.5 -316.5t131.5 -316.5t316.5 -131.5t316.5 131.5t131.5 316.5t-131.5 316.5t-316.5 131.5zM512 684q136 0 241 -85l-540 -540q-85 105 -85 241q0 159 112.5 271.5t271.5 112.5zM512 -84q-145 0 -254 97l541 541q97 -109 97 -254
q0 -159 -112.5 -271.5t-271.5 -112.5z" />
    <glyph glyph-name="uniE716" unicode="&#xe716;" 
d="M512 812q-139 0 -257 -68.5t-186.5 -186.5t-68.5 -257t68.5 -257t186.5 -186.5t257 -68.5t257 68.5t186.5 186.5t68.5 257t-68.5 257t-186.5 186.5t-257 68.5zM512 -164q-192 0 -328 136t-136 328t136 328t328 136t328 -136t136 -328t-136 -328t-328 -136zM796 458
q10 -9 10 -22t-9 -23l-272 -272q-10 -9 -23 -9t-22 10q-10 9 -10 22t9 23l272 272q10 9 23 9t22 -10zM526 142q-10 -10 -23 -10t-22 9l-272 272q-10 10 -9.5 23t9.5 22q9 10 22.5 10t22.5 -9l272 -272q9 -10 9 -23t-9 -22z" />
  </font>
</defs>
</svg>
